<?xml version="1.0" standalone="no"?>
<!DOCTYPE svg PUBLIC "-//W3C//DTD SVG 20010904//EN"
 "http://www.w3.org/TR/2001/REC-SVG-20010904/DTD/svg10.dtd">
<svg version="1.0" xmlns="http://www.w3.org/2000/svg"
 width="242.000000pt" height="268.000000pt" viewBox="0 0 242.000000 268.000000"
 preserveAspectRatio="xMidYMid meet">
<metadata>
Created by potrace 1.16, written by Peter Selinger 2001-2019
</metadata>
<g transform="translate(0.000000,268.000000) scale(0.100000,-0.100000)"
fill="#000000" stroke="none">
<path d="M1046 2604 c-129 -31 -263 -120 -343 -227 -100 -135 -144 -276 -145
-462 0 -218 66 -389 201 -525 124 -124 261 -180 442 -180 188 0 325 55 450
181 137 137 201 305 201 529 0 343 -196 615 -494 685 -78 18 -234 18 -312 -1z
m299 -59 c105 -27 184 -72 260 -149 128 -129 187 -281 186 -486 0 -136 -15
-202 -72 -318 -78 -160 -226 -279 -386 -312 -83 -18 -243 -8 -322 19 -165 57
-296 194 -356 374 -37 107 -46 282 -21 403 46 229 213 412 426 468 73 19 211
20 285 1z"/>
<path d="M770 1257 c-14 -6 -45 -20 -70 -31 -207 -91 -375 -246 -469 -433 -58
-116 -105 -393 -81 -481 30 -115 162 -183 419 -218 273 -37 987 -37 1267 0
261 34 393 102 425 218 13 49 6 175 -17 280 -61 292 -267 527 -570 650 -72 30
-77 31 -90 14 -20 -28 -8 -41 64 -70 340 -139 525 -387 557 -748 11 -124 -16
-172 -128 -223 -139 -64 -356 -85 -878 -85 -513 0 -727 21 -866 85 -110 50
-133 88 -127 210 19 349 205 612 532 750 76 32 92 43 92 61 0 17 -21 38 -33
33 -1 0 -13 -5 -27 -12z"/>
</g>
</svg>
